<?xml version="1.0" encoding="utf-8"?>
<!-- Generator: Adobe Illustrator 21.0.0, SVG Export Plug-In . SVG Version: 6.00 Build 0)  -->
<svg version="1.1" id="图层_1" xmlns="http://www.w3.org/2000/svg" xmlns:xlink="http://www.w3.org/1999/xlink" x="0px" y="0px"
	 viewBox="0 0 30 30" style="enable-background:new 0 0 30 30;" xml:space="preserve">
<style type="text/css">
	.st0{fill:#1296DB;}
</style>
<path class="st0" d="M22.9,9.3l0.3,0.2l0.3,0.2V10c0,1-0.1,1.9-0.4,2.6c-0.3,0.6-0.6,1.1-1.1,1.4c-0.3,1.2-0.7,3-1.3,3.9
	c-0.6,1.1-1.5,1.9-2.7,2.4c-0.6,0.2-1.9,0.3-3.3,0.3c-1.3,0-2.6-0.1-3.1-0.4c-1.1-0.5-1.9-1.4-2.5-2.4c-0.5-0.9-0.9-2.6-1.2-3.7
	c-0.5-0.3-0.9-0.7-1.2-1.4C6.5,12,6.3,11.1,6.4,10V9.7l0.3-0.2c0.1-0.1,0.2-0.1,0.2-0.1C6.6,5.1,6.7,3.6,8.2,1.8
	c3-2.5,10-2.4,13-0.1C23.4,3.6,23.5,5.9,22.9,9.3z M16.4,20.9l0,0.9l-0.5,0.9l0.7,4.8l3-6.4l4.6-0.2c2.4,2.2,3.9,5.7,3.5,9.1H2.3
	c0.1-3,0.6-6.3,3.6-9l4.1,0l3.8,6.4l0.7-4.8l-0.5-0.9l0-0.9C15.1,20.9,15.4,20.9,16.4,20.9z M20.2,8.2c-2,0.4-4.9,0.7-7.2-0.6
	c-0.9-0.5-2.2,0.5-3.2,0.4c-0.3,0.6-0.6,1.4-0.7,2.1l-0.1,0.6l-0.6-0.1c-0.1,0-0.2,0-0.4,0l-0.2,0.1c0,0.7,0.1,1.3,0.3,1.7
	c0.2,0.4,0.4,0.6,0.7,0.7l0.4,0.1l0.1,0.4c0.3,1.1,0.6,2.9,1.1,3.8c0.5,0.8,1,1.5,1.8,1.8c0.3,0.2,1.4,0.2,2.5,0.3
	c1.2,0,2.4,0,2.8-0.2c0.9-0.3,1.5-1,2-1.8c0.5-0.9,0.9-2.7,1.2-3.9l0.1-0.4l0.4-0.1c0.3-0.1,0.5-0.4,0.6-0.7c0.2-0.4,0.3-1,0.3-1.7
	c-0.1,0-0.1,0-0.2-0.1c-0.1,0-0.2-0.1-0.4-0.1l-0.6,0l-0.1-0.6C20.7,9.5,20.5,8.8,20.2,8.2L20.2,8.2z"/>
</svg>
