<?xml version="1.0" encoding="utf-8"?>
<!-- Generator: Adobe Illustrator 21.0.0, SVG Export Plug-In . SVG Version: 6.00 Build 0)  -->
<svg version="1.1" id="图层_1" xmlns="http://www.w3.org/2000/svg" xmlns:xlink="http://www.w3.org/1999/xlink" x="0px" y="0px"
	 viewBox="0 0 30 30" style="enable-background:new 0 0 30 30;" xml:space="preserve">
<style type="text/css">
	.st0{fill:#FF5766;}
</style>
<path class="st0" d="M24.8,23.2c-1.8-0.8-5.2-1.7-5.2-1.7s0-1.1,0-2.1c5.8,0.1,6.1-0.6,6.5-0.8c-1.7-2.7-1.9-8-1.9-8.5
	c-0.5-4-1.5-5.7-1.9-6.3c-5.4-6.8-10.6-2.6-10.6-2.6C8.2,1.1,7.2,4.4,7.1,4.8c-0.6,1.8-1,5.1-1.1,5.5c-0.8,6.4-2.5,8.4-2.7,8.7
	c2.1,0.8,7,0.5,7,0.5s0,1.4,0,2.2c-2.6,0.4-6.4,2.2-6.8,2.4C0.8,25.8,1.3,30,1.3,30h27.3C29.3,24.9,25.1,23.4,24.8,23.2z M16.3,20
	c-0.1,0-1.3,0.6-2.7,0c-0.1,0-2.7-1.1-4.1-5.1c-0.1-0.1-0.8-0.2-1.4-0.8c-0.1-0.1-2.1-2,0.5-3c0.2-0.1,2.1-0.9,3-4.3
	c0.1-0.1,0.1-0.2,0.4-0.3c0,0,1.1,3.2,4.2,3.5c0-0.3-0.4,0-0.1-2.2c0.1,0.1,1.7,2.8,3.7,3c0.3,0.1,1.2,0.5,1.9,0.5
	c0.2,0,1.5,0.7,0.2,2.4c-0.1,0.1-0.5,0.7-1.6,1.1C20.3,15,19.2,18.8,16.3,20z"/>
</svg>
