<?xml version="1.0" encoding="utf-8"?>
<!-- Generator: Adobe Illustrator 21.0.0, SVG Export Plug-In . SVG Version: 6.00 Build 0)  -->
<svg version="1.1" id="图层_1" xmlns="http://www.w3.org/2000/svg" xmlns:xlink="http://www.w3.org/1999/xlink" x="0px" y="0px"
	 viewBox="0 0 30 30" style="enable-background:new 0 0 30 30;" xml:space="preserve">
<style type="text/css">
	.st0{fill:#FFA200;}
</style>
<path class="st0" d="M28,14h2v10c0,4.2,0.2,6-4,6H4c-4.2,0-4-1.2-4-6V4c0-4.2,1.8-4,6-4h10v2H6C2.6,2.1,2,1,2,4v22c0,3.1,0.6,2,4,2
	h20c3,0,2-0.7,2-4L28,14z M29.3,3.3l-2.6-2.7c-0.5-0.7-1.4-0.9-2.1-0.4c-0.2,0.1-0.3,0.2-0.4,0.4L9,16.1c0,0,0,0-0.1,0.1
	c-0.1,0.1-0.2,0.3-0.3,0.5L8,20.9c-0.1,0.5,0.1,0.9,0.6,1.1c0.1,0,0.2,0,0.3,0C9,22,9,22,9.1,22l4.7-0.6c0.2,0,0.4-0.1,0.5-0.3
	c0,0,0.1,0,0.1-0.1L29.3,5.9c0.7-0.5,0.9-1.5,0.3-2.2C29.6,3.5,29.5,3.4,29.3,3.3L29.3,3.3z M13,20l-2.8,0.5c-0.2,0-0.3,0-0.5-0.1
	c0-0.1,0-0.3,0-0.4l0.7-2.5L13,20L13,20z M14.3,18.7l-2.6-2.6L22.3,5.3l2.6,2.5L14.3,18.7z M27.8,4.9l-1.7,1.7L23.6,4l1.7-1.7
	c0.2-0.2,0.5-0.2,0.6,0c0,0,0,0,0,0l1.9,1.9C28,4.4,28,4.7,27.8,4.9L27.8,4.9z"/>
</svg>
